<svg xmlns="http://www.w3.org/2000/svg" width="400" height="400" viewBox="0 0 400 400">
    <rect x="0" y="0" width="400" height="400" fill="#FFFFFF" />
    <g transform="translate(30,30)"><circle cx="170" cy="170" r="159.79999999999998" fill="#FFFFFF" stroke="#16233F" stroke-width="6.188" /><circle cx="170" cy="170" r="148.614" fill="none" stroke="#16233F" stroke-width="2.38" opacity="0.55" /><line x1="170" y1="154.7" x2="170" y2="12.597000000000008" stroke="#16233F" stroke-width="4.76" stroke-linecap="round" /><line x1="183.05808657913983" y1="99.54486959850485" x2="242.9241858159716" y2="30.50889801826912" stroke="#16233F" stroke-width="3.9031999999999996" stroke-linecap="round" /><line x1="183.25018867790192" y1="162.35" x2="306.31499663188197" y2="91.29850000000002" stroke="#16233F" stroke-width="4.76" stroke-linecap="round" /><line x1="237.54497604421005" y1="146.08106950160416" x2="327.2649308260506" y2="163.40864647606278" stroke="#16233F" stroke-width="3.9031999999999996" stroke-linecap="round" /><line x1="183.25018867790192" y1="177.65" x2="306.31499663188197" y2="248.70149999999998" stroke="#16233F" stroke-width="4.76" stroke-linecap="round" /><line x1="224.4868894650702" y1="216.53619990309932" x2="254.340745010079" y2="302.89974845779363" stroke="#16233F" stroke-width="3.9031999999999996" stroke-linecap="round" /><line x1="170" y1="185.3" x2="170" y2="327.403" stroke="#16233F" stroke-width="4.76" stroke-linecap="round" /><line x1="156.94191342086017" y1="240.45513040149515" x2="97.07581418402845" y2="309.49110198173094" stroke="#16233F" stroke-width="3.9031999999999996" stroke-linecap="round" /><line x1="156.74981132209808" y1="177.65" x2="33.685003368118004" y2="248.70149999999998" stroke="#16233F" stroke-width="4.76" stroke-linecap="round" /><line x1="102.45502395578997" y1="193.91893049839587" x2="12.735069173949398" y2="176.59135352393724" stroke="#16233F" stroke-width="3.9031999999999996" stroke-linecap="round" /><line x1="156.74981132209808" y1="162.35" x2="33.68500336811803" y2="91.29849999999999" stroke="#16233F" stroke-width="4.76" stroke-linecap="round" /><line x1="115.51311053492978" y1="123.46380009690071" x2="85.65925498992092" y2="37.100251542206365" stroke="#16233F" stroke-width="3.9031999999999996" stroke-linecap="round" /><circle cx="170" cy="170" r="17" fill="#16233F" /><circle cx="170" cy="170" r="23.12" fill="none" stroke="#C89B3C" stroke-width="4.76" /></g>
  </svg>